<?xml version="1.0" encoding="UTF-8" standalone="no"?> <svg xmlns="http://www.w3.org/2000/svg" xmlns:xlink="http://www.w3.org/1999/xlink" viewBox="0 0 64 64"><defs><style>.cls-1{fill:url(#linear-gradient);}</style><linearGradient id="linear-gradient" x1="2.76" y1="32" x2="61.26" y2="32" gradientUnits="userSpaceOnUse"><stop offset="0" stop-color="#17a6d7"/><stop offset="1" stop-color="#9d31fe"/></linearGradient></defs><g id="Layer_41" data-name="Layer 41"><path class="cls-1" d="M60.36,26.61a18.49,18.49,0,0,0-10.61-8.08,8.76,8.76,0,1,0-10.46,0l-.52.17a10.56,10.56,0,0,0-13.54,0l-.51-.16a8.77,8.77,0,1,0-10.46,0,18.5,18.5,0,0,0-10.6,8.08,6.1,6.1,0,0,0,1.44,8,23.61,23.61,0,0,0,13.29,4.81,23,23,0,0,0-5.82,6.34,7.26,7.26,0,0,0,1.72,9.52,29.21,29.21,0,0,0,35.42,0,7.26,7.26,0,0,0,1.72-9.52,23,23,0,0,0-5.82-6.34,23.61,23.61,0,0,0,13.31-4.82A6.09,6.09,0,0,0,60.36,26.61ZM38.25,11.52a6.27,6.27,0,1,1,6.3,6.26h-.06A6.27,6.27,0,0,1,38.25,11.52ZM32,18.75a8.09,8.09,0,1,1-8.09,8.09A8.1,8.1,0,0,1,32,18.75ZM13.23,11.52a6.27,6.27,0,1,1,6.3,6.26h-.06A6.28,6.28,0,0,1,13.23,11.52ZM19.5,37A21.12,21.12,0,0,1,6.62,32.61a3.58,3.58,0,0,1-.84-4.68,16,16,0,0,1,13.69-7.65h.06a15.66,15.66,0,0,1,3.81.48,10.56,10.56,0,0,0,2.83,14.91,21.51,21.51,0,0,0-2.71.9A21.16,21.16,0,0,1,19.5,37ZM49.3,47.07a4.73,4.73,0,0,1-1.1,6.21,26.72,26.72,0,0,1-32.4,0,4.73,4.73,0,0,1-1.1-6.21,20.34,20.34,0,0,1,34.6,0ZM57.4,32.6A21.09,21.09,0,0,1,44.52,37a20.85,20.85,0,0,1-4-.39,22.3,22.3,0,0,0-2.69-.89,10.56,10.56,0,0,0,2.83-14.91,15.88,15.88,0,0,1,3.83-.48h.06a16,16,0,0,1,13.68,7.65A3.55,3.55,0,0,1,57.4,32.6Z"/></g></svg>